<svg xmlns="http://www.w3.org/2000/svg" width="54" height="74" viewBox="0 0 54 74">
    <g fill="none" fill-rule="evenodd">
        <path d="M26.941 73c14.327 0 25.941-11.614 25.941-25.941 0-14.327-19.023-25.941-25.94-25.941C20.023 21.118 1 32.732 1 47.058 1 61.387 12.614 73 26.941 73z" fill="#FFF"/>
        <path d="M25.353 71.941c12.28 0 22.235-9.955 22.235-22.235S31.282 27.47 25.353 27.47c-5.93 0-22.235 9.955-22.235 22.235S13.073 71.94 25.353 71.94z" fill="#E4ECF0"/>
        <path d="M26.941 73c14.327 0 25.941-11.614 25.941-25.941 0-14.327-19.023-25.941-25.94-25.941C20.023 21.118 1 32.732 1 47.058 1 61.387 12.614 73 26.941 73z" stroke="#BCC3CF" stroke-width="2"/>
        <path d="M27.47 22.176c7.018 0 12.706-5.418 12.706-12.103 0-6.684-5.688-2.147-12.705-2.147-7.018 0-12.706-11.525-12.706-4.841 0 6.685 5.688 19.091 12.706 19.091z" fill="#FFF"/>
        <path d="M25.882 22.176c5.556 0 10.06-4.064 10.06-9.077s-4.504-1.61-10.06-1.61c-5.555 0-10.058-8.644-10.058-3.631s4.503 14.318 10.058 14.318z" fill="#E4ECF0"/>
        <path d="M27.47 22.176c7.018 0 12.706-5.418 12.706-12.103 0-6.684-5.688-2.147-12.705-2.147-7.018 0-12.706-11.525-12.706-4.841 0 6.685 5.688 19.091 12.706 19.091z" stroke="#BCC3CF" stroke-width="2"/>
        <path d="M35.182 40.72h-3.244c.506.728.833 1.58.982 2.56h3.006l-.744 2.647h-2.247c-.218 1.6-.873 2.824-1.965 3.673-1.091.848-2.634 1.355-4.628 1.52l6.935 7.926v.19h-4.271L21.43 50.61l-.015-2.226h3.766c1.111 0 1.992-.225 2.641-.676a3.235 3.235 0 0 0 1.303-1.782h-8.007l.759-2.647h7.188c-.486-1.503-1.8-2.254-3.944-2.254h-4.003l.803-2.967h14.02l-.759 2.661z" fill="#6A6F7B"/>
    </g>
</svg>
